<svg width="1920" height="1080" viewBox="0 0 1920 1080" fill="none" xmlns="http://www.w3.org/2000/svg">
<rect width="1920" height="1080" fill="#FEBD2E"/>
<path fill-rule="evenodd" clip-rule="evenodd" d="M1895.48 -325.623C1943.55 -315.16 1979.21 -277.056 2024.52 -257.912C2072.39 -237.687 2130.8 -242.768 2170.63 -209.382C2211.79 -174.882 2240.82 -123.654 2248.16 -70.4531C2255.4 -17.9612 2226.18 31.3034 2210.83 82.0183C2196.35 129.816 2196.85 187.309 2159.92 220.928C2122.64 254.866 2060.49 236.553 2015.69 259.664C1969.22 283.635 1947.48 351.915 1895.48 357.343C1844.84 362.629 1803.42 316.439 1762.54 286.088C1726.36 259.221 1690.56 229.979 1669.95 189.896C1650.6 152.253 1667.93 104.284 1649.49 66.1891C1624.12 13.8109 1532.42 -13.1479 1544.01 -70.179C1555.44 -126.419 1658.67 -105.414 1693.61 -150.944C1729.57 -197.809 1691.55 -282.019 1736.22 -320.672C1776.89 -355.867 1842.92 -337.064 1895.48 -325.623Z" fill="#292D32"/>
<path fill-rule="evenodd" clip-rule="evenodd" d="M22.4808 958.377C70.5472 968.84 106.207 1006.94 151.521 1026.09C199.395 1046.31 257.801 1041.23 297.63 1074.62C338.788 1109.12 367.816 1160.35 375.155 1213.55C382.396 1266.04 353.184 1315.3 337.827 1366.02C323.354 1413.82 323.852 1471.31 286.923 1504.93C249.645 1538.87 187.495 1520.55 142.692 1543.66C96.2243 1567.64 74.4848 1635.91 22.4808 1641.34C-28.1587 1646.63 -69.5767 1600.44 -110.456 1570.09C-146.642 1543.22 -182.441 1513.98 -203.049 1473.9C-222.402 1436.25 -205.065 1388.28 -223.513 1350.19C-248.878 1297.81 -340.582 1270.85 -328.993 1213.82C-317.564 1157.58 -214.327 1178.59 -179.39 1133.06C-143.43 1086.19 -181.453 1001.98 -136.783 963.328C-96.1086 928.133 -30.0762 946.936 22.4808 958.377Z" fill="#292D32"/>
<path fill-rule="evenodd" clip-rule="evenodd" d="M-143.519 -440.623C-95.4528 -430.16 -59.7935 -392.056 -14.4792 -372.912C33.3948 -352.687 91.8014 -357.768 131.63 -324.382C172.788 -289.882 201.816 -238.654 209.155 -185.453C216.396 -132.961 187.184 -83.6966 171.827 -32.9817C157.354 14.8156 157.852 72.3087 120.923 105.928C83.6447 139.866 21.495 121.553 -23.3076 144.664C-69.7757 168.635 -91.5152 236.915 -143.519 242.343C-194.159 247.629 -235.577 201.439 -276.456 171.088C-312.642 144.221 -348.441 114.979 -369.049 74.8964C-388.402 37.2534 -371.065 -10.7159 -389.513 -48.8109C-414.878 -101.189 -506.582 -128.148 -494.993 -185.179C-483.564 -241.419 -380.327 -220.414 -345.39 -265.944C-309.43 -312.809 -347.453 -397.019 -302.783 -435.672C-262.109 -470.867 -196.076 -452.064 -143.519 -440.623Z" fill="#292D32"/>
</svg>
