<svg width="141" height="81" viewBox="0 0 141 81" fill="none" xmlns="http://www.w3.org/2000/svg">
<rect y="11.2604" width="40.4916" height="71.7246" transform="rotate(-16.1464 0 11.2604)" fill="#292D32"/>
<path d="M48.072 41.6693V44.0373H38.376V51.5573H46.248V53.9253H38.376V63.9733H35.464V41.6693H48.072Z" fill="white"/>
<path d="M59.237 64.2613C57.5943 64.2613 56.101 63.888 54.757 63.1413C53.4343 62.3946 52.389 61.3386 51.621 59.9733C50.8743 58.5866 50.501 56.9866 50.501 55.1733C50.501 53.3813 50.885 51.8026 51.653 50.4373C52.4423 49.0506 53.509 47.9946 54.853 47.2693C56.197 46.5226 57.701 46.1493 59.365 46.1493C61.029 46.1493 62.533 46.5226 63.877 47.2693C65.221 47.9946 66.277 49.04 67.045 50.4053C67.8343 51.7706 68.229 53.36 68.229 55.1733C68.229 56.9866 67.8237 58.5866 67.013 59.9733C66.2237 61.3386 65.1463 62.3946 63.781 63.1413C62.4157 63.888 60.901 64.2613 59.237 64.2613ZM59.237 61.7013C60.2823 61.7013 61.2637 61.456 62.181 60.9653C63.0983 60.4746 63.8343 59.7386 64.389 58.7573C64.965 57.776 65.253 56.5813 65.253 55.1733C65.253 53.7653 64.9757 52.5706 64.421 51.5893C63.8663 50.608 63.141 49.8826 62.245 49.4133C61.349 48.9226 60.3783 48.6773 59.333 48.6773C58.2663 48.6773 57.285 48.9226 56.389 49.4133C55.5143 49.8826 54.8103 50.608 54.277 51.5893C53.7437 52.5706 53.477 53.7653 53.477 55.1733C53.477 56.6026 53.733 57.808 54.245 58.7893C54.7783 59.7706 55.4823 60.5066 56.357 60.9973C57.2317 61.4666 58.1917 61.7013 59.237 61.7013ZM79.7058 64.2613C78.0631 64.2613 76.5698 63.888 75.2258 63.1413C73.9031 62.3946 72.8578 61.3386 72.0898 59.9733C71.3431 58.5866 70.9698 56.9866 70.9698 55.1733C70.9698 53.3813 71.3538 51.8026 72.1218 50.4373C72.9111 49.0506 73.9778 47.9946 75.3218 47.2693C76.6658 46.5226 78.1698 46.1493 79.8338 46.1493C81.4978 46.1493 83.0018 46.5226 84.3458 47.2693C85.6898 47.9946 86.7458 49.04 87.5138 50.4053C88.3031 51.7706 88.6978 53.36 88.6978 55.1733C88.6978 56.9866 88.2924 58.5866 87.4818 59.9733C86.6924 61.3386 85.6151 62.3946 84.2498 63.1413C82.8844 63.888 81.3698 64.2613 79.7058 64.2613ZM79.7058 61.7013C80.7511 61.7013 81.7324 61.456 82.6498 60.9653C83.5671 60.4746 84.3031 59.7386 84.8578 58.7573C85.4338 57.776 85.7218 56.5813 85.7218 55.1733C85.7218 53.7653 85.4444 52.5706 84.8898 51.5893C84.3351 50.608 83.6098 49.8826 82.7138 49.4133C81.8178 48.9226 80.8471 48.6773 79.8018 48.6773C78.7351 48.6773 77.7538 48.9226 76.8578 49.4133C75.9831 49.8826 75.2791 50.608 74.7458 51.5893C74.2124 52.5706 73.9458 53.7653 73.9458 55.1733C73.9458 56.6026 74.2018 57.808 74.7138 58.7893C75.2471 59.7706 75.9511 60.5066 76.8258 60.9973C77.7004 61.4666 78.6604 61.7013 79.7058 61.7013ZM91.4385 55.1413C91.4385 53.3493 91.8012 51.7813 92.5265 50.4373C93.2518 49.072 94.2438 48.016 95.5025 47.2693C96.7825 46.5226 98.2118 46.1493 99.7905 46.1493C101.156 46.1493 102.425 46.4693 103.599 47.1093C104.772 47.728 105.668 48.5493 106.287 49.5733V40.2933H109.231V63.9733H106.287V60.6773C105.711 61.7226 104.857 62.5866 103.727 63.2693C102.596 63.9306 101.273 64.2613 99.7585 64.2613C98.2012 64.2613 96.7825 63.8773 95.5025 63.1093C94.2438 62.3413 93.2518 61.264 92.5265 59.8773C91.8012 58.4906 91.4385 56.912 91.4385 55.1413ZM106.287 55.1733C106.287 53.8506 106.02 52.6986 105.487 51.7173C104.953 50.736 104.228 49.9893 103.311 49.4773C102.415 48.944 101.423 48.6773 100.335 48.6773C99.2465 48.6773 98.2545 48.9333 97.3585 49.4453C96.4625 49.9573 95.7478 50.704 95.2145 51.6853C94.6812 52.6666 94.4145 53.8186 94.4145 55.1413C94.4145 56.4853 94.6812 57.6586 95.2145 58.6613C95.7478 59.6426 96.4625 60.4 97.3585 60.9333C98.2545 61.4453 99.2465 61.7013 100.335 61.7013C101.423 61.7013 102.415 61.4453 103.311 60.9333C104.228 60.4 104.953 59.6426 105.487 58.6613C106.02 57.6586 106.287 56.496 106.287 55.1733Z" fill="#292D32"/>
<path d="M35.088 17.8293V39.9733H32.176V23.4613L24.816 39.9733H22.768L15.376 23.4293V39.9733H12.464V17.8293H15.6L23.792 36.1333L31.984 17.8293H35.088Z" fill="white"/>
<path d="M47.6745 40.2613C46.0318 40.2613 44.5385 39.888 43.1945 39.1413C41.8718 38.3946 40.8265 37.3386 40.0585 35.9733C39.3118 34.5866 38.9385 32.9866 38.9385 31.1733C38.9385 29.3813 39.3225 27.8026 40.0905 26.4373C40.8798 25.0506 41.9465 23.9946 43.2905 23.2693C44.6345 22.5226 46.1385 22.1493 47.8025 22.1493C49.4665 22.1493 50.9705 22.5226 52.3145 23.2693C53.6585 23.9946 54.7145 25.04 55.4825 26.4053C56.2718 27.7706 56.6665 29.36 56.6665 31.1733C56.6665 32.9866 56.2612 34.5866 55.4505 35.9733C54.6612 37.3386 53.5838 38.3946 52.2185 39.1413C50.8532 39.888 49.3385 40.2613 47.6745 40.2613ZM47.6745 37.7013C48.7198 37.7013 49.7012 37.456 50.6185 36.9653C51.5358 36.4746 52.2718 35.7386 52.8265 34.7573C53.4025 33.776 53.6905 32.5813 53.6905 31.1733C53.6905 29.7653 53.4132 28.5706 52.8585 27.5893C52.3038 26.608 51.5785 25.8826 50.6825 25.4133C49.7865 24.9226 48.8158 24.6773 47.7705 24.6773C46.7038 24.6773 45.7225 24.9226 44.8265 25.4133C43.9518 25.8826 43.2478 26.608 42.7145 27.5893C42.1812 28.5706 41.9145 29.7653 41.9145 31.1733C41.9145 32.6026 42.1705 33.808 42.6825 34.7893C43.2158 35.7706 43.9198 36.5066 44.7945 36.9973C45.6692 37.4666 46.6292 37.7013 47.6745 37.7013ZM63.4073 25.2853C63.9193 24.2826 64.6446 23.504 65.5833 22.9493C66.5433 22.3946 67.7059 22.1173 69.0713 22.1173V25.1253H68.3033C65.0393 25.1253 63.4073 26.896 63.4073 30.4373V39.9733H60.4953V22.4373H63.4073V25.2853ZM88.4328 30.5333C88.4328 31.088 88.4008 31.6746 88.3368 32.2933H74.3208C74.4274 34.0213 75.0141 35.376 76.0808 36.3573C77.1688 37.3173 78.4808 37.7973 80.0168 37.7973C81.2754 37.7973 82.3208 37.5093 83.1528 36.9333C84.0061 36.336 84.6034 35.5466 84.9448 34.5653H88.0808C87.6114 36.2506 86.6728 37.6266 85.2648 38.6933C83.8568 39.7386 82.1074 40.2613 80.0168 40.2613C78.3528 40.2613 76.8594 39.888 75.5368 39.1413C74.2354 38.3946 73.2114 37.3386 72.4648 35.9733C71.7181 34.5866 71.3448 32.9866 71.3448 31.1733C71.3448 29.36 71.7074 27.7706 72.4328 26.4053C73.1581 25.04 74.1714 23.9946 75.4728 23.2693C76.7954 22.5226 78.3101 22.1493 80.0168 22.1493C81.6808 22.1493 83.1528 22.512 84.4328 23.2373C85.7128 23.9626 86.6941 24.9653 87.3768 26.2453C88.0808 27.504 88.4328 28.9333 88.4328 30.5333ZM85.4248 29.9253C85.4248 28.816 85.1794 27.8666 84.6888 27.0773C84.1981 26.2666 83.5261 25.6586 82.6728 25.2533C81.8408 24.8266 80.9128 24.6133 79.8888 24.6133C78.4168 24.6133 77.1581 25.0826 76.1128 26.0213C75.0888 26.96 74.5021 28.2613 74.3528 29.9253H85.4248Z" fill="#292D32"/>
</svg>
